<?xml version="1.0" encoding="iso-8859-1"?>
<!-- Generator: Adobe Illustrator 22.1.0, SVG Export Plug-In . SVG Version: 6.00 Build 0)  -->
<svg version="1.1" id="Layer_1" xmlns="http://www.w3.org/2000/svg" xmlns:xlink="http://www.w3.org/1999/xlink" x="0px" y="0px"
	 viewBox="0 0 48 48" style="enable-background:new 0 0 48 48;" xml:space="preserve">
<path style="fill:#33D375;" d="M33,8c0-2.209-1.791-4-4-4s-4,1.791-4,4c0,1.254,0,9.741,0,11c0,2.209,1.791,4,4,4s4-1.791,4-4
	C33,17.741,33,9.254,33,8z"/>
<path style="fill:#33D375;" d="M43,19c0,2.209-1.791,4-4,4c-1.195,0-4,0-4,0s0-2.986,0-4c0-2.209,1.791-4,4-4S43,16.791,43,19z"/>
<path style="fill:#40C4FF;" d="M8,14c-2.209,0-4,1.791-4,4s1.791,4,4,4c1.254,0,9.741,0,11,0c2.209,0,4-1.791,4-4s-1.791-4-4-4
	C17.741,14,9.254,14,8,14z"/>
<path style="fill:#40C4FF;" d="M19,4c2.209,0,4,1.791,4,4c0,1.195,0,4,0,4s-2.986,0-4,0c-2.209,0-4-1.791-4-4S16.791,4,19,4z"/>
<path style="fill:#E91E63;" d="M14,39.006C14,41.212,15.791,43,18,43s4-1.788,4-3.994c0-1.252,0-9.727,0-10.984
	c0-2.206-1.791-3.994-4-3.994s-4,1.788-4,3.994C14,29.279,14,37.754,14,39.006z"/>
<path style="fill:#E91E63;" d="M4,28.022c0-2.206,1.791-3.994,4-3.994c1.195,0,4,0,4,0s0,2.981,0,3.994c0,2.206-1.791,3.994-4,3.994
	S4,30.228,4,28.022z"/>
<path style="fill:#FFC107;" d="M39,33c2.209,0,4-1.791,4-4s-1.791-4-4-4c-1.254,0-9.741,0-11,0c-2.209,0-4,1.791-4,4s1.791,4,4,4
	C29.258,33,37.746,33,39,33z"/>
<path style="fill:#FFC107;" d="M28,43c-2.209,0-4-1.791-4-4c0-1.195,0-4,0-4s2.986,0,4,0c2.209,0,4,1.791,4,4S30.209,43,28,43z"/>
</svg>